<svg version="1.0" viewBox="0 0 375 375" xmlns="http://www.w3.org/2000/svg">
  <defs>
    <linearGradient
      id="b"
      x1="4"
      x2="484"
      y1="484"
      y2="4"
      gradientTransform="translate(-12.5 -12.5) scale(.78125)"
      gradientUnits="userSpaceOnUse"
    >
      <stop stop-color="#2d7c31" offset="0" />
      <stop stop-color="#2d7c31" offset=".1" />
      <stop stop-color="#2f7d32" offset=".1" />
      <stop stop-color="#307e32" offset=".1" />
      <stop stop-color="#327f33" offset=".1" />
      <stop stop-color="#338033" offset=".1" />
      <stop stop-color="#348134" offset=".1" />
      <stop stop-color="#368234" offset=".1" />
      <stop stop-color="#378335" offset=".2" />
      <stop stop-color="#398435" offset=".2" />
      <stop stop-color="#3a8536" offset=".2" />
      <stop stop-color="#3c8636" offset=".2" />
      <stop stop-color="#3d8737" offset=".2" />
      <stop stop-color="#3f8837" offset=".2" />
      <stop stop-color="#408938" offset=".2" />
      <stop stop-color="#428a38" offset=".2" />
      <stop stop-color="#438a39" offset=".2" />
      <stop stop-color="#448b39" offset=".2" />
      <stop stop-color="#468c3a" offset=".2" />
      <stop stop-color="#478d3a" offset=".2" />
      <stop stop-color="#498e3a" offset=".2" />
      <stop stop-color="#4a8f3b" offset=".2" />
      <stop stop-color="#4c903b" offset=".2" />
      <stop stop-color="#4d913c" offset=".2" />
      <stop stop-color="#4f923c" offset=".2" />
      <stop stop-color="#50933d" offset=".2" />
      <stop stop-color="#51943d" offset=".2" />
      <stop stop-color="#53953e" offset=".2" />
      <stop stop-color="#54963e" offset=".2" />
      <stop stop-color="#56973f" offset=".2" />
      <stop stop-color="#57983f" offset=".2" />
      <stop stop-color="#599940" offset=".2" />
      <stop stop-color="#5a9a40" offset=".2" />
      <stop stop-color="#5c9b41" offset=".3" />
      <stop stop-color="#5d9b41" offset=".3" />
      <stop stop-color="#5f9c42" offset=".3" />
      <stop stop-color="#609d42" offset=".3" />
      <stop stop-color="#619e43" offset=".3" />
      <stop stop-color="#639f43" offset=".3" />
      <stop stop-color="#64a044" offset=".3" />
      <stop stop-color="#66a144" offset=".3" />
      <stop stop-color="#67a244" offset=".3" />
      <stop stop-color="#69a345" offset=".3" />
      <stop stop-color="#6aa445" offset=".3" />
      <stop stop-color="#6ca546" offset=".3" />
      <stop stop-color="#6da646" offset=".3" />
      <stop stop-color="#6ea747" offset=".3" />
      <stop stop-color="#70a847" offset=".3" />
      <stop stop-color="#71a948" offset=".3" />
      <stop stop-color="#73aa48" offset=".3" />
      <stop stop-color="#74ab49" offset=".3" />
      <stop stop-color="#76ac49" offset=".3" />
      <stop stop-color="#77ac4a" offset=".3" />
      <stop stop-color="#79ad4a" offset=".3" />
      <stop stop-color="#7aae4b" offset=".3" />
      <stop stop-color="#7baf4b" offset=".3" />
      <stop stop-color="#7db04c" offset=".3" />
      <stop stop-color="#7eb14c" offset=".3" />
      <stop stop-color="#80b24d" offset=".3" />
      <stop stop-color="#81b34d" offset=".4" />
      <stop stop-color="#83b44e" offset=".4" />
      <stop stop-color="#84b54e" offset=".4" />
      <stop stop-color="#86b64e" offset=".4" />
      <stop stop-color="#87b74f" offset=".4" />
      <stop stop-color="#89b84f" offset=".4" />
      <stop stop-color="#8ab950" offset=".4" />
      <stop stop-color="#8bba50" offset=".4" />
      <stop stop-color="#8dbb51" offset=".4" />
      <stop stop-color="#8ebc51" offset=".4" />
      <stop stop-color="#90bd52" offset=".4" />
      <stop stop-color="#91bd52" offset=".4" />
      <stop stop-color="#93be53" offset=".4" />
      <stop stop-color="#94bf53" offset=".4" />
      <stop stop-color="#96c054" offset=".4" />
      <stop stop-color="#97c154" offset=".4" />
      <stop stop-color="#98c255" offset=".4" />
      <stop stop-color="#9ac355" offset=".4" />
      <stop stop-color="#9bc456" offset=".4" />
      <stop stop-color="#9dc556" offset=".4" />
      <stop stop-color="#9ec657" offset=".4" />
      <stop stop-color="#a0c757" offset=".4" />
      <stop stop-color="#a1c858" offset=".4" />
      <stop stop-color="#a3c958" offset=".4" />
      <stop stop-color="#a4ca59" offset=".4" />
      <stop stop-color="#a6cb59" offset=".4" />
      <stop stop-color="#a7cc59" offset=".5" />
      <stop stop-color="#a8cd5a" offset=".5" />
      <stop stop-color="#aace5a" offset=".5" />
      <stop stop-color="#abce5b" offset=".5" />
      <stop stop-color="#adcf5b" offset=".5" />
      <stop stop-color="#aed05c" offset=".5" />
      <stop stop-color="#b0d15c" offset=".5" />
      <stop stop-color="#b1d25d" offset=".5" />
      <stop stop-color="#b3d35d" offset=".5" />
      <stop stop-color="#b4d45e" offset=".5" />
      <stop stop-color="#b5d55e" offset=".5" />
      <stop stop-color="#b7d65f" offset=".5" />
      <stop stop-color="#b8d75f" offset=".5" />
      <stop stop-color="#bad860" offset=".5" />
      <stop stop-color="#bbd960" offset=".5" />
      <stop stop-color="#bdda61" offset=".5" />
      <stop stop-color="#bedb61" offset=".5" />
      <stop stop-color="#c0dc62" offset=".5" />
      <stop stop-color="#c1dd62" offset=".5" />
      <stop stop-color="#c2de63" offset=".5" />
      <stop stop-color="#c4de63" offset=".5" />
      <stop stop-color="#c5df63" offset=".5" />
      <stop stop-color="#c7e064" offset=".5" />
      <stop stop-color="#c7e064" offset=".5" />
      <stop stop-color="#c7e164" offset=".5" />
      <stop stop-color="#c5df63" offset=".6" />
      <stop stop-color="#c4de63" offset=".6" />
      <stop stop-color="#c2dd62" offset=".6" />
      <stop stop-color="#c1dc62" offset=".6" />
      <stop stop-color="#bfdb61" offset=".6" />
      <stop stop-color="#bdda61" offset=".6" />
      <stop stop-color="#bcd960" offset=".6" />
      <stop stop-color="#bad860" offset=".6" />
      <stop stop-color="#b9d75f" offset=".6" />
      <stop stop-color="#b7d65f" offset=".6" />
      <stop stop-color="#b6d55e" offset=".6" />
      <stop stop-color="#b4d45e" offset=".6" />
      <stop stop-color="#b2d35d" offset=".6" />
      <stop stop-color="#b1d25d" offset=".6" />
      <stop stop-color="#afd15c" offset=".6" />
      <stop stop-color="#aed05c" offset=".6" />
      <stop stop-color="#accf5b" offset=".6" />
      <stop stop-color="#aace5b" offset=".6" />
      <stop stop-color="#a9cd5a" offset=".6" />
      <stop stop-color="#a7cc5a" offset=".6" />
      <stop stop-color="#a6cb59" offset=".6" />
      <stop stop-color="#a4ca59" offset=".6" />
      <stop stop-color="#a2c958" offset=".6" />
      <stop stop-color="#a1c857" offset=".6" />
      <stop stop-color="#9fc757" offset=".6" />
      <stop stop-color="#9ec656" offset=".6" />
      <stop stop-color="#9cc556" offset=".7" />
      <stop stop-color="#9bc455" offset=".7" />
      <stop stop-color="#99c255" offset=".7" />
      <stop stop-color="#97c154" offset=".7" />
      <stop stop-color="#96c054" offset=".7" />
      <stop stop-color="#94bf53" offset=".7" />
      <stop stop-color="#93be53" offset=".7" />
      <stop stop-color="#91bd52" offset=".7" />
      <stop stop-color="#8fbc52" offset=".7" />
      <stop stop-color="#8ebb51" offset=".7" />
      <stop stop-color="#8cba51" offset=".7" />
      <stop stop-color="#8bb950" offset=".7" />
      <stop stop-color="#89b850" offset=".7" />
      <stop stop-color="#87b74f" offset=".7" />
      <stop stop-color="#86b64f" offset=".7" />
      <stop stop-color="#84b54e" offset=".7" />
      <stop stop-color="#83b44e" offset=".7" />
      <stop stop-color="#81b34d" offset=".7" />
      <stop stop-color="#80b24c" offset=".7" />
      <stop stop-color="#7eb14c" offset=".7" />
      <stop stop-color="#7cb04b" offset=".7" />
      <stop stop-color="#7baf4b" offset=".7" />
      <stop stop-color="#79ae4a" offset=".7" />
      <stop stop-color="#78ad4a" offset=".7" />
      <stop stop-color="#76ac49" offset=".7" />
      <stop stop-color="#74ab49" offset=".8" />
      <stop stop-color="#73aa48" offset=".8" />
      <stop stop-color="#71a948" offset=".8" />
      <stop stop-color="#70a847" offset=".8" />
      <stop stop-color="#6ea747" offset=".8" />
      <stop stop-color="#6ca646" offset=".8" />
      <stop stop-color="#6ba446" offset=".8" />
      <stop stop-color="#69a345" offset=".8" />
      <stop stop-color="#68a245" offset=".8" />
      <stop stop-color="#66a144" offset=".8" />
      <stop stop-color="#65a044" offset=".8" />
      <stop stop-color="#639f43" offset=".8" />
      <stop stop-color="#619e43" offset=".8" />
      <stop stop-color="#609d42" offset=".8" />
      <stop stop-color="#5e9c42" offset=".8" />
      <stop stop-color="#5d9b41" offset=".8" />
      <stop stop-color="#5b9a40" offset=".8" />
      <stop stop-color="#599940" offset=".8" />
      <stop stop-color="#58983f" offset=".8" />
      <stop stop-color="#56973f" offset=".8" />
      <stop stop-color="#55963e" offset=".8" />
      <stop stop-color="#53953e" offset=".8" />
      <stop stop-color="#51943d" offset=".8" />
      <stop stop-color="#50933d" offset=".8" />
      <stop stop-color="#4e923c" offset=".8" />
      <stop stop-color="#4d913c" offset=".8" />
      <stop stop-color="#4b903b" offset=".9" />
      <stop stop-color="#498f3b" offset=".9" />
      <stop stop-color="#488e3a" offset=".9" />
      <stop stop-color="#468d3a" offset=".9" />
      <stop stop-color="#458c39" offset=".9" />
      <stop stop-color="#438b39" offset=".9" />
      <stop stop-color="#428a38" offset=".9" />
      <stop stop-color="#408938" offset=".9" />
      <stop stop-color="#3e8837" offset=".9" />
      <stop stop-color="#3d8637" offset=".9" />
      <stop stop-color="#3b8536" offset=".9" />
      <stop stop-color="#3a8435" offset=".9" />
      <stop stop-color="#388335" offset=".9" />
      <stop stop-color="#368234" offset=".9" />
      <stop stop-color="#358134" offset=".9" />
      <stop stop-color="#338033" offset=".9" />
      <stop stop-color="#327f33" offset=".9" />
      <stop stop-color="#307e32" offset=".9" />
      <stop stop-color="#2e7d32" offset=".9" />
      <stop stop-color="#2e7d32" offset=".9" />
      <stop stop-color="#2d7c31" offset=".9" />
      <stop stop-color="#2d7c31" offset=".9" />
      <stop stop-color="#2d7c31" offset="1" />
    </linearGradient>
    <clipPath id="a">
      <path
        d="M353.1 43.8h-128L199.3 6.3a14.4 14.4 0 0 0-23.8 0l-25.7 37.5H22c-12.1 0-22 9.8-22 21.8V272c0 12 9.9 21.9 22 21.9h130.3a57.5 57.5 0 0 1-15.8 29.7l-1.5 1.5h-8.5a25.6 25.6 0 0 0-24.3 17.5l-5.8 17.7a11.3 11.3 0 0 0 1.5 10.1 11.3 11.3 0 0 0 9.2 4.7h161a11.3 11.3 0 0 0 10.7-14.8l-5.9-17.7a25.6 25.6 0 0 0-24.3-17.5h-8.4l-1.5-1.5a57.4 57.4 0 0 1-15.8-29.7H353c12 0 21.9-9.9 21.9-22V65.7c0-12-9.8-21.8-21.9-21.8zM186 13.3c.5-.7 1.2-.8 1.6-.8s1 .1 1.6.8l65.7 96.1c.6.9.4 1.6.1 2-.2.4-.6 1-1.7 1H121.8c-1 0-1.5-.6-1.8-1-.2-.4-.4-1.1.2-2zm-164 43h119.5l-31.6 46a14.4 14.4 0 0 0-.8 15 14.4 14.4 0 0 0 12.8 7.6h131.4c5.4 0 10.3-2.9 12.8-7.7a14.4 14.4 0 0 0-.9-14.8l-31.5-46.2H353c5.2 0 9.4 4.3 9.4 9.4v178.1h-350v-178c0-5.2 4.2-9.5 9.4-9.5zm239 290.2 5.4 16H108.7l5.3-16a13.1 13.1 0 0 1 12.4-9h122.1a13.1 13.1 0 0 1 12.5 9zM223.5 325h-71.8a69.7 69.7 0 0 0 13.4-31.2h45a69.6 69.6 0 0 0 13.4 31.2zM353 281.3H22a9.4 9.4 0 0 1-9.4-9.4v-15.6h350v15.6c0 5.1-4.2 9.4-9.4 9.4zM225 268.8a6.2 6.2 0 0 1-6.2 6.2h-62.5a6.2 6.2 0 1 1 0-12.5h62.5a6.2 6.2 0 0 1 6.2 6.3zm125 0a6.2 6.2 0 0 1-6.2 6.2h-12.5a6.2 6.2 0 1 1 0-12.5h12.5a6.2 6.2 0 0 1 6.2 6.3zm-31.2 0a6.2 6.2 0 0 1-6.3 6.2H300a6.2 6.2 0 1 1 0-12.5h12.5a6.2 6.2 0 0 1 6.3 6.3zm-31.3 0a6.2 6.2 0 0 1-6.2 6.2h-12.5a6.2 6.2 0 1 1 0-12.5h12.5a6.2 6.2 0 0 1 6.2 6.3zm-250 0a6.2 6.2 0 1 1-6.2-6.3 6.2 6.2 0 0 1 6.2 6.3zm18.8 0a6.2 6.2 0 1 1-6.3-6.3 6.2 6.2 0 0 1 6.3 6.3zm18.7 0a6.2 6.2 0 1 1-6.2-6.3 6.2 6.2 0 0 1 6.2 6.3zm100.1-37.5H200c10.4 0 18.9-8.5 18.9-18.9v-49.8c0-10.4-8.5-18.8-18.9-18.8h-24.8a18.9 18.9 0 0 0-18.8 18.8v49.8c0 10.4 8.4 18.9 18.8 18.9zm-6.3-68.7c0-3.5 2.8-6.3 6.3-6.3H200c3.5 0 6.4 2.8 6.4 6.3v49.8c0 3.5-2.9 6.4-6.4 6.4h-24.8a6.4 6.4 0 0 1-6.3-6.4zm-60.3-18.4a6.3 6.3 0 0 1 3.6 8l-15.6 41.6h22.3V175a6.2 6.2 0 1 1 12.5 0v18.8h6.2a6.2 6.2 0 1 1 0 12.5h-6.2V225a6.2 6.2 0 1 1-12.5 0v-18.7H87.5a6.3 6.3 0 0 1-5.8-8.5l18.7-50a6.3 6.3 0 0 1 8-3.6zm123.9 59.4a6.3 6.3 0 0 1-.7-5.8l18.7-50a6.3 6.3 0 0 1 11.7 4.4l-15.6 41.6h22.3V175a6.2 6.2 0 1 1 12.5 0v18.8h6.2a6.2 6.2 0 1 1 0 12.5h-6.2V225a6.2 6.2 0 1 1-12.5 0v-18.7h-31.3a6.2 6.2 0 0 1-5.1-2.7zM181.3 81.3v-50a6.2 6.2 0 1 1 12.5 0v50a6.2 6.2 0 1 1-12.5 0zm12.5 18.7a6.2 6.2 0 1 1-6.3-6.3 6.2 6.2 0 0 1 6.3 6.3zm118.7 62.5a43.8 43.8 0 1 0 0-87.6 43.8 43.8 0 0 0 0 87.6zm0-75a31.3 31.3 0 1 1 0 62.6 31.3 31.3 0 0 1 0-62.6zm-17 39.3 8.2-8-8.1-8.1a6.2 6.2 0 1 1 8.8-8.9l8.1 8.1 8-8a6.2 6.2 0 1 1 9 8.8l-8.2 8 8.1 8.1a6.2 6.2 0 0 1 0 8.9 6.2 6.2 0 0 1-8.8 0l-8.1-8.1-8 8a6.2 6.2 0 0 1-9 0 6.2 6.2 0 0 1 0-8.8zm-233 35.7a43.8 43.8 0 1 0 0-87.6 43.8 43.8 0 0 0 0 87.6zm0-75a31.3 31.3 0 1 1 0 62.6 31.3 31.3 0 0 1 0-62.6zm-17 39.3 8.2-8-8.1-8.1a6.2 6.2 0 1 1 8.8-8.9l8.1 8.1 8-8a6.2 6.2 0 1 1 9 8.8l-8.2 8 8.1 8.1a6.2 6.2 0 0 1 0 8.9 6.2 6.2 0 0 1-8.8 0l-8-8.1-8.2 8a6.2 6.2 0 0 1-8.8 0 6.2 6.2 0 0 1 0-8.8z"
      />
    </clipPath>
  </defs>
  <g clip-path="url(#a)">
    <path d="M-37.5-37.5h450v450h-450z" fill="url(#b)" />
  </g>
</svg>
