<?xml version="1.0" encoding="utf-8"?>
<!-- Generator: Adobe Illustrator 23.0.3, SVG Export Plug-In . SVG Version: 6.00 Build 0)  -->
<svg version="1.1" id="Layer_1" xmlns="http://www.w3.org/2000/svg" xmlns:xlink="http://www.w3.org/1999/xlink" x="0px" y="0px"
	 viewBox="0 0 2000 2000" style="enable-background:new 0 0 2000 2000;" xml:space="preserve">
<style type="text/css">
	.st0{fill:#29398F;}
</style>
<g>
	<path class="st0" d="M1080.14,731.28h-5c0,4.46-1.79,8.46-4.72,11.39c-2.93,2.92-6.92,4.71-11.39,4.72
		c-4.46,0-8.46-1.79-11.39-4.72c-2.92-2.93-4.71-6.92-4.72-11.39c0-4.46,1.79-8.46,4.72-11.39c2.93-2.92,6.92-4.71,11.39-4.72
		c4.46,0,8.46,1.79,11.39,4.72c2.92,2.93,4.71,6.92,4.72,11.39H1080.14h5c0-7.19-2.93-13.75-7.65-18.46
		c-4.71-4.72-11.27-7.65-18.46-7.65c-7.19,0-13.75,2.93-18.46,7.65c-4.72,4.71-7.65,11.27-7.65,18.46c0,7.19,2.93,13.75,7.65,18.46
		c4.71,4.72,11.27,7.65,18.46,7.65c7.19,0,13.75-2.93,18.46-7.65c4.72-4.71,7.65-11.27,7.65-18.46H1080.14z"/>
	<path class="st0" d="M808.47,797.76h-5c0,4.46-1.79,8.46-4.72,11.39c-2.93,2.92-6.92,4.71-11.39,4.72c-4.46,0-8.46-1.79-11.39-4.72
		c-2.92-2.93-4.71-6.92-4.72-11.39c0-4.46,1.79-8.46,4.72-11.39c2.93-2.92,6.92-4.71,11.39-4.72c4.46,0,8.46,1.79,11.39,4.72
		c2.92,2.93,4.71,6.92,4.72,11.39H808.47h5c0-7.19-2.93-13.75-7.65-18.46c-4.71-4.72-11.27-7.65-18.46-7.65
		c-7.19,0-13.75,2.93-18.46,7.65c-4.72,4.71-7.65,11.27-7.65,18.46c0,7.19,2.93,13.75,7.65,18.46c4.71,4.72,11.27,7.65,18.46,7.65
		c7.19,0,13.75-2.93,18.46-7.65c4.72-4.71,7.65-11.27,7.65-18.46H808.47z"/>
	<path class="st0" d="M808.47,953.62h-5c0,4.46-1.79,8.46-4.72,11.39c-2.93,2.92-6.92,4.71-11.39,4.72c-4.46,0-8.46-1.79-11.39-4.72
		c-2.92-2.93-4.71-6.92-4.72-11.39c0-4.46,1.79-8.46,4.72-11.39c2.93-2.92,6.92-4.71,11.39-4.72c4.46,0,8.46,1.79,11.39,4.72
		c2.92,2.93,4.71,6.92,4.72,11.39H808.47h5c0-7.19-2.93-13.75-7.65-18.46c-4.71-4.72-11.27-7.65-18.46-7.65
		c-7.19,0-13.75,2.93-18.46,7.65c-4.72,4.71-7.65,11.27-7.65,18.46c0,7.19,2.93,13.75,7.65,18.46c4.71,4.72,11.27,7.65,18.46,7.65
		c7.19,0,13.75-2.93,18.46-7.65c4.72-4.71,7.65-11.27,7.65-18.46H808.47z"/>
	<path class="st0" d="M794.76,1103.6h-3.38c0,3.01-1.21,5.71-3.18,7.69c-1.98,1.97-4.67,3.18-7.69,3.18c-3.01,0-5.71-1.21-7.69-3.18
		c-1.97-1.98-3.18-4.67-3.18-7.69c0-3.01,1.21-5.71,3.18-7.69c1.98-1.97,4.67-3.18,7.69-3.18c3.01,0,5.71,1.21,7.69,3.18
		c1.97,1.98,3.18,4.67,3.18,7.69H794.76h3.38c0-4.86-1.98-9.28-5.16-12.46c-3.18-3.18-7.61-5.16-12.46-5.16
		c-4.86,0-9.28,1.98-12.46,5.16c-3.18,3.18-5.16,7.61-5.16,12.46c0,4.86,1.98,9.28,5.16,12.46c3.18,3.18,7.61,5.16,12.46,5.16
		c4.86,0,9.28-1.98,12.46-5.16c3.18-3.18,5.16-7.61,5.16-12.46H794.76z"/>
	<polygon class="st0" points="1054.03,748.11 1054.03,787.16 1021.76,819.99 1021.76,917.17 995,945.86 995,1430.59 1005,1430.59 
		1005,949.8 1031.76,921.11 1031.76,824.08 1064.03,791.26 1064.03,748.11 1054.03,748.11 	"/>
	<rect x="992.97" y="1430.59" class="st0" width="14.07" height="66.41"/>
	<rect x="947.24" y="1430.59" class="st0" width="14.07" height="66.41"/>
	<path class="st0" d="M980.72,613.41h-4.47c0,3.75-1.51,7.1-3.96,9.56c-2.46,2.45-5.81,3.96-9.56,3.96c-3.75,0-7.1-1.51-9.56-3.96
		c-2.45-2.46-3.96-5.81-3.96-9.56c0-3.75,1.51-7.1,3.96-9.56c2.46-2.45,5.81-3.96,9.56-3.96c3.75,0,7.1,1.51,9.56,3.96
		c2.45,2.46,3.96,5.81,3.96,9.56H980.72h4.47c0-6.19-2.52-11.83-6.58-15.88c-4.05-4.06-9.69-6.58-15.88-6.58
		c-6.19,0-11.83,2.52-15.88,6.58c-4.06,4.05-6.58,9.69-6.58,15.88c0,6.19,2.52,11.83,6.58,15.88c4.05,4.06,9.69,6.58,15.88,6.58
		c6.19,0,11.83-2.52,15.88-6.58c4.06-4.05,6.58-9.69,6.58-15.88H980.72z"/>
	<path class="st0" d="M886.49,613.41h-4.47c0,3.75-1.51,7.1-3.96,9.56c-2.46,2.45-5.81,3.96-9.56,3.96c-3.75,0-7.1-1.51-9.56-3.96
		c-2.45-2.46-3.96-5.81-3.96-9.56c0-3.75,1.51-7.1,3.96-9.56c2.46-2.45,5.81-3.96,9.56-3.96c3.75,0,7.1,1.51,9.56,3.96
		c2.45,2.46,3.96,5.81,3.96,9.56H886.49h4.47c0-6.19-2.52-11.83-6.58-15.88c-4.05-4.06-9.69-6.58-15.88-6.58
		c-6.19,0-11.83,2.52-15.88,6.58c-4.06,4.05-6.58,9.69-6.58,15.88c0,6.19,2.52,11.83,6.58,15.88c4.05,4.06,9.69,6.58,15.88,6.58
		c6.19,0,11.83-2.52,15.88-6.58c4.06-4.05,6.58-9.69,6.58-15.88H886.49z"/>
	<path class="st0" d="M941.19,807.83h-2.5c0,2.1-0.84,3.97-2.22,5.35c-1.38,1.37-3.25,2.22-5.35,2.22c-2.1,0-3.97-0.84-5.35-2.22
		c-1.37-1.38-2.22-3.25-2.22-5.35c0-2.1,0.84-3.97,2.22-5.35c1.38-1.37,3.25-2.22,5.35-2.22c2.1,0,3.97,0.84,5.35,2.22
		c1.37,1.38,2.22,3.25,2.22,5.35H941.19h2.5c0-3.46-1.41-6.62-3.68-8.89c-2.27-2.27-5.42-3.68-8.89-3.68
		c-3.46,0-6.62,1.41-8.89,3.68c-2.27,2.27-3.68,5.42-3.68,8.89c0,6.94,5.63,12.57,12.57,12.57c3.46,0,6.62-1.41,8.89-3.68
		c2.27-2.27,3.68-5.42,3.68-8.89H941.19z"/>
	<path class="st0" d="M887.2,807.83h-5c0,1.42-0.56,2.65-1.48,3.58c-0.93,0.93-2.17,1.48-3.58,1.48c-1.42,0-2.65-0.56-3.58-1.48
		c-0.93-0.93-1.48-2.17-1.48-3.58c0-1.42,0.56-2.65,1.48-3.58c0.93-0.93,2.17-1.48,3.58-1.48c1.42,0,2.65,0.56,3.58,1.48
		c0.93,0.93,1.48,2.17,1.48,3.58H887.2h5c0-4.15-1.69-7.94-4.41-10.66c-2.71-2.72-6.51-4.42-10.66-4.41
		c-4.15,0-7.94,1.69-10.66,4.41c-2.72,2.71-4.42,6.51-4.41,10.66c0,4.15,1.69,7.94,4.41,10.66c2.71,2.72,6.51,4.42,10.66,4.41
		c4.15,0,7.94-1.69,10.66-4.41c2.72-2.71,4.42-6.51,4.41-10.66H887.2z"/>
	<polygon class="st0" points="958.26,632.88 958.26,705.67 1000.16,748.79 1000.16,939.99 1009.09,939.99 1009.09,745.17 
		967.19,702.04 967.19,632.88 958.26,632.88 	"/>
	<path class="st0" d="M898.24,421.52h-4.47c0,3.75-1.51,7.1-3.96,9.56c-2.46,2.45-5.81,3.96-9.56,3.96c-3.75,0-7.1-1.51-9.56-3.96
		c-2.45-2.46-3.96-5.81-3.96-9.56c0-3.75,1.51-7.1,3.96-9.56c2.46-2.45,5.81-3.96,9.56-3.96c3.75,0,7.1,1.51,9.56,3.96
		c2.45,2.46,3.96,5.81,3.96,9.56H898.24h4.47c0-6.19-2.52-11.83-6.58-15.88c-4.05-4.06-9.69-6.58-15.88-6.58
		c-6.19,0-11.83,2.52-15.88,6.58c-4.06,4.05-6.58,9.69-6.58,15.88c0,6.19,2.52,11.83,6.58,15.88c4.05,4.06,9.69,6.58,15.88,6.58
		c6.19,0,11.83-2.52,15.88-6.58c4.06-4.05,6.58-9.69,6.58-15.88H898.24z"/>
	<polygon class="st0" points="926.61,553.28 926.61,625.13 917.67,616.19 917.67,556.91 875.78,513.78 875.78,440.99 884.71,440.99 
		884.71,510.16 	"/>
	<path class="st0" d="M1108.92,421.52h4.47c0,3.75,1.51,7.1,3.96,9.56c2.46,2.45,5.81,3.96,9.56,3.96c3.75,0,7.1-1.51,9.56-3.96
		c2.45-2.46,3.96-5.81,3.96-9.56c0-3.75-1.51-7.1-3.96-9.56c-2.46-2.45-5.81-3.96-9.56-3.96c-3.75,0-7.1,1.51-9.56,3.96
		c-2.45,2.46-3.96,5.81-3.96,9.56H1108.92h-4.47c0-6.19,2.52-11.83,6.58-15.88c4.05-4.06,9.69-6.58,15.88-6.58
		c6.19,0,11.83,2.52,15.88,6.58c4.06,4.05,6.58,9.69,6.58,15.88c0,6.19-2.52,11.83-6.58,15.88c-4.05,4.06-9.69,6.58-15.88,6.58
		c-6.19,0-11.83-2.52-15.88-6.58c-4.06-4.05-6.58-9.69-6.58-15.88H1108.92z"/>
	<polygon class="st0" points="1131.37,440.99 1131.37,513.78 1089.48,556.91 1089.48,595.44 1080.54,602.6 1080.54,553.28 
		1122.44,510.16 1122.44,440.99 	"/>
	<path class="st0" d="M980.72,443.98h-4.47c0,3.75-1.51,7.1-3.96,9.56c-2.46,2.45-5.81,3.96-9.56,3.96c-3.75,0-7.1-1.51-9.56-3.96
		c-2.45-2.46-3.96-5.81-3.96-9.56c0-3.75,1.51-7.1,3.96-9.56c2.46-2.45,5.81-3.96,9.56-3.96c3.75,0,7.1,1.51,9.56,3.96
		c2.45,2.46,3.96,5.81,3.96,9.56H980.72h4.47c0-6.19-2.52-11.83-6.58-15.88c-4.05-4.06-9.69-6.58-15.88-6.58
		c-6.19,0-11.83,2.52-15.88,6.58c-4.06,4.05-6.58,9.69-6.58,15.88c0,6.19,2.52,11.83,6.58,15.88c4.05,4.06,9.69,6.58,15.88,6.58
		c6.19,0,11.83-2.52,15.88-6.58c4.06-4.05,6.58-9.69,6.58-15.88H980.72z"/>
	<polygon class="st0" points="1009.09,575.74 1009.09,647.59 1000.15,638.65 1000.15,579.37 958.26,536.24 958.26,463.45 
		967.19,463.45 967.19,532.62 	"/>
	<path class="st0" d="M1028.03,443.98h4.47c0,3.75,1.51,7.1,3.96,9.56c2.46,2.45,5.81,3.96,9.56,3.96c3.75,0,7.1-1.51,9.56-3.96
		c2.45-2.46,3.96-5.81,3.96-9.56c0-3.75-1.51-7.1-3.96-9.56c-2.46-2.45-5.81-3.96-9.56-3.96c-3.75,0-7.1,1.51-9.56,3.96
		c-2.45,2.46-3.96,5.81-3.96,9.56H1028.03h-4.47c0-6.19,2.52-11.83,6.58-15.88c4.05-4.06,9.69-6.58,15.88-6.58
		c6.19,0,11.83,2.52,15.88,6.58c4.06,4.05,6.58,9.69,6.58,15.88c0,6.19-2.52,11.83-6.58,15.88c-4.05,4.06-9.69,6.58-15.88,6.58
		c-6.19,0-11.83-2.52-15.88-6.58c-4.06-4.05-6.58-9.69-6.58-15.88H1028.03z"/>
	<polygon class="st0" points="999.65,575.74 999.65,647.59 1008.59,638.65 1008.59,579.37 1050.48,536.24 1050.48,463.45 
		1041.55,463.45 1041.55,532.62 	"/>
	<polyline class="st0" points="965.82,700.63 884.56,622.64 878.37,629.09 959.63,707.08 	"/>
	<path class="st0" d="M1113.51,613.41h-4.47c0,6.19,2.52,11.83,6.58,15.88c4.05,4.06,9.69,6.58,15.88,6.58
		c6.19,0,11.83-2.52,15.88-6.58c4.06-4.05,6.58-9.69,6.58-15.88c0-6.19-2.52-11.83-6.58-15.88c-4.05-4.06-9.69-6.58-15.88-6.58
		c-6.19,0-11.83,2.52-15.88,6.58c-4.06,4.05-6.58,9.69-6.58,15.88H1113.51h4.47c0-3.75,1.51-7.1,3.96-9.56
		c2.46-2.45,5.81-3.96,9.56-3.96c3.75,0,7.1,1.51,9.56,3.96c2.45,2.46,3.96,5.81,3.96,9.56c0,3.75-1.51,7.1-3.96,9.56
		c-2.46,2.45-5.81,3.96-9.56,3.96c-3.75,0-7.1-1.51-9.56-3.96c-2.45-2.46-3.96-5.81-3.96-9.56H1113.51z"/>
	<polyline class="st0" points="1115.44,622.65 1055.94,679.76 1062.13,686.2 1121.63,629.09 	"/>
	<polygon class="st0" points="936.47,816.72 969.3,849.55 969.3,989.08 998.41,1018.18 1001.95,1014.65 974.3,987.01 974.3,847.48 
		940.01,813.19 936.47,816.72 	"/>
	<path class="st0" d="M837.81,895.01h-2.5c0,2.1-0.84,3.97-2.22,5.35c-1.38,1.37-3.25,2.22-5.35,2.22c-2.1,0-3.97-0.84-5.35-2.22
		c-1.37-1.38-2.22-3.25-2.22-5.35c0-2.1,0.84-3.97,2.22-5.35c1.38-1.37,3.25-2.22,5.35-2.22c2.1,0,3.97,0.84,5.35,2.22
		c1.37,1.38,2.22,3.25,2.22,5.35H837.81h2.5c0-6.94-5.63-12.57-12.57-12.57c-6.94,0-12.57,5.63-12.57,12.57
		c0,6.94,5.63,12.57,12.57,12.57c6.94,0,12.57-5.63,12.57-12.57H837.81z"/>
	<polygon class="st0" points="833.09,903.9 865.91,936.73 865.91,1076.37 895.36,1101.72 898.63,1097.94 870.91,1074.07 
		870.91,934.65 836.62,900.36 833.09,903.9 	"/>
	<polygon class="st0" points="880.71,818.49 934.6,872.37 934.6,1016.11 952.11,1033.62 952.11,1154.05 964.04,1165.97 
		964.04,1404.79 949.59,1419.24 949.59,1431.83 949.59,1463.79 959.59,1463.79 959.59,1431.83 959.59,1423.38 974.04,1408.93 
		974.04,1161.82 962.11,1149.9 962.11,1029.48 944.6,1011.97 944.6,868.23 887.79,811.42 880.71,818.49 	"/>
	<polygon class="st0" points="798.76,816.23 891.99,909.46 891.99,1102.11 953.84,1155.75 960.39,1148.19 901.99,1097.55 
		901.99,905.32 805.83,809.15 798.76,816.23 	"/>
	<rect x="906.41" y="1430.59" class="st0" width="14.07" height="66.41"/>
	<polygon class="st0" points="800.06,971.2 822.73,990.81 822.73,1052.31 894.06,1103.88 899.92,1095.78 832.73,1047.2 
		832.73,986.23 806.6,963.64 800.06,971.2 	"/>
	<polygon class="st0" points="790.16,1114.61 820.07,1135.92 820.07,1174.2 910.32,1264.44 910.32,1435.42 917.07,1435.42 
		917.07,1261.64 826.82,1171.4 826.82,1132.44 794.07,1109.11 790.16,1114.61 	"/>
	<polyline class="st0" points="770.42,1093.1 722.77,1060.87 718.98,1066.46 766.63,1098.69 	"/>
	<path class="st0" d="M879.17,1122.59h-3.38c0,2.73-1.1,5.18-2.89,6.98c-1.8,1.79-4.24,2.89-6.98,2.89c-2.73,0-5.18-1.1-6.98-2.89
		c-1.79-1.8-2.89-4.24-2.89-6.98c0-2.74,1.1-5.18,2.89-6.98c1.8-1.79,4.24-2.89,6.98-2.89c2.73,0,5.18,1.1,6.98,2.89
		c1.79,1.8,2.89,4.24,2.89,6.98H879.17h3.38c0-4.58-1.87-8.75-4.87-11.75c-3-3-7.17-4.87-11.75-4.87c-4.58,0-8.75,1.87-11.75,4.87
		c-3,3-4.87,7.17-4.87,11.75c0,4.58,1.87,8.75,4.87,11.75c3,3,7.17,4.87,11.75,4.87c4.58,0,8.75-1.87,11.75-4.87
		c3-3,4.87-7.17,4.87-11.75H879.17z"/>
	<polygon class="st0" points="862.55,1135.83 862.55,1164.54 910.64,1212.63 910.64,1267.42 917.39,1267.42 917.39,1209.83 
		869.3,1161.74 869.3,1135.83 862.55,1135.83 	"/>
	<path class="st0" d="M1191.53,797.76h-5c0,7.19,2.93,13.75,7.65,18.46c4.71,4.72,11.27,7.65,18.46,7.65
		c7.19,0,13.75-2.93,18.46-7.65c4.72-4.71,7.65-11.27,7.65-18.46c0-7.19-2.93-13.75-7.65-18.46c-4.71-4.72-11.27-7.65-18.46-7.65
		c-7.19,0-13.75,2.93-18.46,7.65c-4.72,4.71-7.65,11.27-7.65,18.46H1191.53h5c0-4.46,1.79-8.46,4.72-11.39
		c2.93-2.92,6.92-4.71,11.39-4.72c4.46,0,8.46,1.79,11.39,4.72c2.92,2.93,4.71,6.92,4.72,11.39c0,4.46-1.79,8.46-4.72,11.39
		c-2.93,2.92-6.92,4.71-11.39,4.72c-4.46,0-8.46-1.79-11.39-4.72c-2.92-2.93-4.71-6.92-4.72-11.39H1191.53z"/>
	<path class="st0" d="M1191.53,953.62h-5c0,7.19,2.93,13.75,7.65,18.46c4.71,4.72,11.27,7.65,18.46,7.65
		c7.19,0,13.75-2.93,18.46-7.65c4.72-4.71,7.65-11.27,7.65-18.46c0-7.19-2.93-13.75-7.65-18.46c-4.71-4.72-11.27-7.65-18.46-7.65
		c-7.19,0-13.75,2.93-18.46,7.65c-4.72,4.71-7.65,11.27-7.65,18.46H1191.53h5c0-4.46,1.79-8.46,4.72-11.39
		c2.93-2.92,6.92-4.71,11.39-4.72c4.46,0,8.46,1.79,11.39,4.72c2.92,2.93,4.71,6.92,4.72,11.39c0,4.46-1.79,8.46-4.72,11.39
		c-2.93,2.92-6.92,4.71-11.39,4.72c-4.46,0-8.46-1.79-11.39-4.72c-2.92-2.93-4.71-6.92-4.72-11.39H1191.53z"/>
	<path class="st0" d="M1205.24,1103.6h-3.38c0,4.86,1.98,9.28,5.16,12.46c3.18,3.18,7.61,5.16,12.46,5.16
		c4.86,0,9.28-1.98,12.46-5.16c3.18-3.18,5.16-7.61,5.16-12.46c0-4.86-1.98-9.28-5.16-12.46c-3.18-3.18-7.61-5.16-12.46-5.16
		c-4.86,0-9.28,1.98-12.46,5.16c-3.18,3.18-5.16,7.61-5.16,12.46H1205.24h3.38c0-3.01,1.21-5.71,3.18-7.69
		c1.98-1.97,4.67-3.18,7.69-3.18c3.01,0,5.71,1.21,7.69,3.18c1.97,1.98,3.18,4.67,3.18,7.69c0,3.01-1.21,5.71-3.18,7.69
		c-1.98,1.97-4.67,3.18-7.69,3.18c-3.01,0-5.71-1.21-7.69-3.18c-1.97-1.98-3.18-4.67-3.18-7.69H1205.24z"/>
	<rect x="1038.69" y="1430.59" class="st0" width="14.07" height="66.41"/>
	<path class="st0" d="M1112.8,807.83h-5c0,4.15,1.69,7.94,4.41,10.66c2.71,2.72,6.51,4.42,10.66,4.41c4.15,0,7.94-1.69,10.66-4.41
		c2.72-2.71,4.42-6.51,4.41-10.66c0-4.15-1.69-7.94-4.41-10.66c-2.71-2.72-6.51-4.42-10.66-4.41c-4.15,0-7.94,1.69-10.66,4.41
		c-2.72,2.71-4.42,6.51-4.41,10.66H1112.8h5c0-1.42,0.56-2.65,1.48-3.58c0.93-0.93,2.17-1.48,3.58-1.48c1.42,0,2.65,0.56,3.58,1.48
		c0.93,0.93,1.48,2.17,1.48,3.58c0,1.42-0.56,2.65-1.48,3.58c-0.93,0.93-2.17,1.48-3.58,1.48c-1.42,0-2.65-0.56-3.58-1.48
		c-0.93-0.93-1.48-2.17-1.48-3.58H1112.8z"/>
	<path class="st0" d="M1162.19,895.01h-2.5c0,3.46,1.41,6.62,3.68,8.89c2.27,2.27,5.42,3.68,8.89,3.68
		c6.94,0,12.57-5.63,12.57-12.57c0-6.94-5.63-12.57-12.57-12.57c-6.94,0-12.57,5.63-12.57,12.57H1162.19h2.5
		c0-2.1,0.84-3.97,2.22-5.35c1.38-1.37,3.25-2.22,5.35-2.22c2.1,0,3.97,0.84,5.35,2.22c1.37,1.38,2.22,3.25,2.22,5.35
		c0,2.1-0.84,3.97-2.22,5.35c-1.38,1.37-3.25,2.22-5.35,2.22c-2.1,0-3.97-0.84-5.35-2.22c-1.37-1.38-2.22-3.25-2.22-5.35H1162.19z"
		/>
	<polygon class="st0" points="1163.38,900.36 1129.09,934.65 1129.09,1074.07 1101.37,1097.94 1104.64,1101.72 1134.09,1076.37 
		1134.09,936.73 1166.91,903.9 1163.38,900.36 	"/>
	<polygon class="st0" points="1112.21,811.42 1055.4,868.23 1055.4,1011.97 1037.89,1029.48 1037.89,1149.9 1025.96,1161.82 
		1025.96,1408.93 1040.41,1423.38 1040.41,1431.83 1040.41,1463.79 1050.41,1463.79 1050.41,1431.83 1050.41,1419.24 
		1035.96,1404.79 1035.96,1165.97 1047.89,1154.05 1047.89,1033.62 1065.4,1016.11 1065.4,872.37 1119.29,818.49 1112.21,811.42 	
		"/>
	<polygon class="st0" points="1046.16,1155.75 1108.01,1102.11 1108.01,909.46 1201.24,816.23 1194.17,809.15 1098.01,905.32 
		1098.01,1097.55 1039.61,1148.19 1046.16,1155.75 	"/>
	<rect x="1079.52" y="1430.59" class="st0" width="14.07" height="66.41"/>
	<polygon class="st0" points="1105.94,1103.88 1177.27,1052.31 1177.27,990.81 1199.94,971.2 1193.4,963.64 1167.27,986.23 
		1167.27,1047.2 1100.08,1095.78 1105.94,1103.88 	"/>
	<polygon class="st0" points="1089.68,1435.42 1089.68,1264.44 1179.93,1174.2 1179.93,1135.92 1209.84,1114.61 1205.93,1109.11 
		1173.18,1132.44 1173.18,1171.4 1082.93,1261.64 1082.93,1435.42 1089.68,1435.42 	"/>
	<path class="st0" d="M1120.83,1122.59h-3.38c0,4.58,1.87,8.75,4.87,11.75c3,3,7.17,4.87,11.75,4.87c4.58,0,8.75-1.87,11.75-4.87
		c3-3,4.87-7.17,4.87-11.75c0-4.58-1.87-8.75-4.87-11.75c-3-3-7.17-4.87-11.75-4.87c-4.58,0-8.75,1.87-11.75,4.87
		c-3,3-4.87,7.17-4.87,11.75H1120.83h3.38c0-2.74,1.1-5.18,2.89-6.98c1.8-1.79,4.24-2.89,6.98-2.89c2.74,0,5.18,1.1,6.98,2.89
		c1.79,1.8,2.89,4.24,2.89,6.98c0,2.73-1.1,5.18-2.89,6.98c-1.8,1.79-4.24,2.89-6.98,2.89c-2.73,0-5.18-1.1-6.98-2.89
		c-1.79-1.8-2.89-4.24-2.89-6.98H1120.83z"/>
	<polygon class="st0" points="1089.36,1267.42 1089.36,1212.63 1137.45,1164.54 1137.45,1135.83 1130.7,1135.83 1130.7,1161.74 
		1082.61,1209.83 1082.61,1267.42 1089.36,1267.42 	"/>
	<polygon class="st0" points="771.62,688.08 771.62,688.09 771.62,690.16 835.92,754.45 835.92,851.32 845.92,851.32 845.92,750.31 
		780.16,684.55 776.62,688.09 781.62,688.09 781.62,688.08 	"/>
	<path class="st0" d="M781.52,676.29h-5c0,3.24-1.3,6.13-3.42,8.26c-2.13,2.12-5.02,3.42-8.26,3.42c-3.24,0-6.13-1.3-8.26-3.42
		c-2.12-2.13-3.42-5.02-3.42-8.26c0-3.24,1.3-6.13,3.42-8.26c2.13-2.12,5.02-3.42,8.26-3.42c3.24,0,6.13,1.3,8.26,3.42
		c2.12,2.13,3.42,5.02,3.42,8.26H781.52h5c0-5.97-2.43-11.42-6.35-15.33c-3.91-3.92-9.36-6.35-15.33-6.35
		c-5.97,0-11.42,2.43-15.33,6.35c-3.92,3.91-6.35,9.36-6.35,15.33c0,5.97,2.43,11.42,6.35,15.33c3.91,3.92,9.36,6.35,15.33,6.35
		c5.97,0,11.42-2.43,15.33-6.35c3.92-3.91,6.35-9.36,6.35-15.33H781.52z"/>
	<polygon class="st0" points="1164.08,851.32 1164.08,754.45 1228.38,690.16 1228.38,688.08 1218.38,688.08 1218.38,688.09 
		1223.38,688.09 1219.84,684.55 1154.08,750.31 1154.08,851.32 1164.08,851.32 	"/>
	<path class="st0" d="M1218.48,676.29h-5c0,5.97,2.43,11.42,6.35,15.33c3.91,3.92,9.36,6.35,15.33,6.35
		c5.97,0,11.42-2.43,15.33-6.35c3.92-3.91,6.35-9.36,6.35-15.33c0-5.97-2.43-11.42-6.35-15.33c-3.91-3.92-9.36-6.35-15.33-6.35
		c-5.97,0-11.42,2.43-15.33,6.35c-3.92,3.91-6.35,9.36-6.35,15.33H1218.48h5c0-3.24,1.3-6.13,3.42-8.26
		c2.13-2.12,5.02-3.42,8.26-3.42c3.24,0,6.13,1.3,8.26,3.42c2.12,2.13,3.42,5.02,3.42,8.26c0,3.24-1.3,6.13-3.42,8.26
		c-2.13,2.12-5.02,3.42-8.26,3.42c-3.24,0-6.13-1.3-8.26-3.42c-2.12-2.13-3.42-5.02-3.42-8.26H1218.48z"/>
	<path class="st0" d="M1298.06,653.88h-5c0,5.97,2.43,11.42,6.35,15.33c3.91,3.92,9.36,6.35,15.33,6.35
		c5.97,0,11.42-2.43,15.33-6.35c3.92-3.91,6.35-9.36,6.35-15.33c0-5.97-2.43-11.42-6.35-15.33c-3.91-3.92-9.36-6.35-15.33-6.35
		c-5.97,0-11.42,2.43-15.33,6.35c-3.92,3.91-6.35,9.36-6.35,15.33H1298.06h5c0-3.24,1.3-6.13,3.42-8.26
		c2.13-2.12,5.02-3.42,8.26-3.42c3.24,0,6.13,1.3,8.26,3.42c2.12,2.13,3.42,5.02,3.42,8.26c0,3.24-1.3,6.13-3.42,8.26
		c-2.13,2.12-5.02,3.42-8.26,3.42c-3.24,0-6.13-1.3-8.26-3.42c-2.12-2.13-3.42-5.02-3.42-8.26H1298.06z"/>
	<polyline class="st0" points="1064.03,710.18 1064.03,634.51 1054.03,634.51 1054.03,710.18 	"/>
	<path class="st0" d="M1080.14,613.41h-5c0,4.46-1.79,8.46-4.72,11.39c-2.93,2.92-6.92,4.71-11.39,4.72
		c-4.46,0-8.46-1.79-11.39-4.72c-2.92-2.93-4.71-6.92-4.72-11.39c0-4.46,1.79-8.46,4.72-11.39c2.93-2.92,6.92-4.71,11.39-4.72
		c4.46,0,8.46,1.79,11.39,4.72c2.92,2.93,4.71,6.92,4.72,11.39H1080.14h5c0-7.19-2.93-13.75-7.65-18.46
		c-4.71-4.72-11.27-7.65-18.46-7.65c-7.19,0-13.75,2.93-18.46,7.65c-4.72,4.71-7.65,11.27-7.65,18.46c0,7.19,2.93,13.75,7.65,18.46
		c4.71,4.72,11.27,7.65,18.46,7.65c7.19,0,13.75-2.93,18.46-7.65c4.72-4.71,7.65-11.27,7.65-18.46H1080.14z"/>
	<path class="st0" d="M883.67,695h-5c0,2.82-1.13,5.34-2.98,7.19c-1.86,1.85-4.37,2.98-7.19,2.98c-2.83,0-5.34-1.13-7.19-2.98
		c-1.85-1.86-2.98-4.37-2.98-7.19c0-2.83,1.13-5.34,2.98-7.19c1.86-1.85,4.37-2.98,7.19-2.98c2.82,0,5.34,1.13,7.19,2.98
		c1.85,1.86,2.98,4.37,2.98,7.19H883.67h5c0-5.55-2.27-10.63-5.91-14.26c-3.63-3.64-8.71-5.91-14.26-5.91
		c-5.55,0-10.63,2.27-14.26,5.91c-3.64,3.63-5.91,8.71-5.91,14.26c0,5.55,2.27,10.63,5.91,14.26c3.63,3.64,8.71,5.91,14.26,5.91
		c5.55,0,10.63-2.27,14.26-5.91c3.64-3.63,5.91-8.71,5.91-14.26H883.67z"/>
	<polyline class="st0" points="1007.2,826.63 882.76,702.19 875.69,709.27 1000.13,833.71 	"/>
	<path class="st0" d="M1116.33,716.66h-5c0,5.55,2.27,10.63,5.91,14.26c3.63,3.64,8.71,5.91,14.26,5.91
		c5.55,0,10.63-2.27,14.26-5.91c3.64-3.63,5.91-8.71,5.91-14.26c0-5.55-2.27-10.63-5.91-14.26c-3.63-3.64-8.71-5.91-14.26-5.91
		c-5.55,0-10.63,2.27-14.26,5.91c-3.64,3.63-5.91,8.71-5.91,14.26H1116.33h5c0-2.82,1.13-5.34,2.98-7.19
		c1.86-1.85,4.37-2.98,7.19-2.98c2.82,0,5.34,1.13,7.19,2.98c1.85,1.86,2.98,4.37,2.98,7.19c0,2.83-1.13,5.34-2.98,7.19
		c-1.86,1.85-4.37,2.98-7.19,2.98c-2.82,0-5.34-1.13-7.19-2.98c-1.85-1.86-2.98-4.37-2.98-7.19H1116.33z"/>
	<polyline class="st0" points="1117.22,723.88 1024.16,818.21 1031.28,825.23 1124.34,730.9 	"/>
	<polygon class="st0" points="1193.25,1125.84 1193.25,1075.84 1283.81,1000.99 1277.44,993.29 1183.25,1071.14 1183.25,1125.84 
		1193.25,1125.84 	"/>
	<path class="st0" d="M1315.31,984.66h-5c0,4.04-1.62,7.66-4.27,10.31c-2.66,2.65-6.27,4.27-10.31,4.27
		c-4.04,0-7.66-1.62-10.31-4.27c-2.65-2.66-4.27-6.27-4.27-10.31c0-4.04,1.62-7.66,4.27-10.31c2.66-2.65,6.27-4.27,10.31-4.27
		c4.04,0,7.66,1.62,10.31,4.27c2.65,2.66,4.27,6.27,4.27,10.31H1315.31h5c0-6.77-2.76-12.95-7.2-17.38
		c-4.43-4.44-10.61-7.2-17.38-7.2c-6.77,0-12.95,2.76-17.39,7.2c-4.44,4.43-7.2,10.61-7.2,17.38c0,6.77,2.76,12.95,7.2,17.39
		c4.43,4.44,10.61,7.2,17.39,7.2c6.77,0,12.95-2.76,17.38-7.2c4.44-4.43,7.2-10.61,7.2-17.39H1315.31z"/>
	<polygon class="st0" points="716.19,1000.99 806.75,1075.84 806.75,1125.84 816.75,1125.84 816.75,1071.14 722.56,993.29 
		716.19,1000.99 	"/>
	<path class="st0" d="M684.69,984.66h-5c0,6.77,2.76,12.95,7.2,17.39c4.43,4.44,10.61,7.2,17.39,7.2c6.77,0,12.95-2.76,17.38-7.2
		c4.44-4.43,7.2-10.61,7.2-17.39c0-6.77-2.76-12.95-7.2-17.38c-4.43-4.44-10.61-7.2-17.38-7.2c-6.77,0-12.95,2.76-17.39,7.2
		c-4.44,4.43-7.2,10.61-7.2,17.38H684.69h5c0-4.04,1.62-7.66,4.27-10.31c2.66-2.65,6.27-4.27,10.31-4.27
		c4.04,0,7.66,1.62,10.31,4.27c2.65,2.66,4.27,6.27,4.27,10.31c0,4.04-1.62,7.66-4.27,10.31c-2.66,2.65-6.27,4.27-10.31,4.27
		c-4.04,0-7.66-1.62-10.31-4.27c-2.65-2.66-4.27-6.27-4.27-10.31H684.69z"/>
	<polygon class="st0" points="644.33,880.55 734.88,955.4 734.88,1005.39 744.88,1005.39 744.88,950.69 650.7,872.84 644.33,880.55 
			"/>
	<path class="st0" d="M612.82,864.21h-5c0,6.77,2.76,12.95,7.2,17.39c4.43,4.44,10.61,7.2,17.38,7.2c6.77,0,12.95-2.76,17.39-7.2
		c4.44-4.43,7.2-10.61,7.2-17.39c0-6.77-2.76-12.95-7.2-17.39c-4.43-4.44-10.61-7.2-17.39-7.2c-6.77,0-12.95,2.76-17.38,7.2
		c-4.44,4.43-7.2,10.61-7.2,17.39H612.82h5c0-4.04,1.62-7.66,4.27-10.31c2.66-2.65,6.27-4.27,10.31-4.27
		c4.04,0,7.66,1.62,10.31,4.27c2.65,2.66,4.27,6.27,4.27,10.31c0,4.04-1.62,7.66-4.27,10.31c-2.66,2.65-6.27,4.27-10.31,4.27
		c-4.04,0-7.66-1.62-10.31-4.27c-2.65-2.66-4.27-6.27-4.27-10.31H612.82z"/>
	<polygon class="st0" points="1349.3,872.84 1255.12,950.69 1255.12,1005.39 1265.12,1005.39 1265.12,955.4 1355.67,880.55 
		1349.3,872.84 	"/>
	<path class="st0" d="M1387.18,864.21h-5c0,4.04-1.62,7.66-4.27,10.31c-2.66,2.65-6.27,4.27-10.31,4.27
		c-4.04,0-7.66-1.62-10.31-4.27c-2.65-2.66-4.27-6.27-4.27-10.31c0-4.04,1.62-7.66,4.27-10.31c2.66-2.65,6.27-4.27,10.31-4.27
		c4.04,0,7.66,1.62,10.31,4.27c2.65,2.66,4.27,6.27,4.27,10.31H1387.18h5c0-6.77-2.76-12.95-7.2-17.39
		c-4.43-4.44-10.61-7.2-17.39-7.2c-6.77,0-12.95,2.76-17.38,7.2c-4.44,4.43-7.2,10.61-7.2,17.39c0,6.77,2.76,12.95,7.2,17.39
		c4.43,4.44,10.61,7.2,17.38,7.2c6.77,0,12.95-2.76,17.39-7.2c4.44-4.43,7.2-10.61,7.2-17.39H1387.18z"/>
	<polygon class="st0" points="1265.82,1013.51 1265.82,897.08 1299,863.9 1299,832.24 1309.1,822.13 1302.03,815.07 1289,828.1 
		1289,859.76 1255.82,892.94 1255.82,1013.51 1265.82,1013.51 	"/>
	<path class="st0" d="M1327.72,809.42h-5c0,2.22-0.89,4.18-2.34,5.64c-1.46,1.45-3.42,2.33-5.64,2.34c-2.22,0-4.18-0.89-5.64-2.34
		c-1.45-1.46-2.33-3.42-2.34-5.64c0-2.22,0.89-4.18,2.34-5.64c1.46-1.45,3.42-2.33,5.64-2.34c2.22,0,4.18,0.89,5.64,2.34
		c1.45,1.46,2.33,3.42,2.34,5.64H1327.72h5c0-4.95-2.02-9.47-5.27-12.71c-3.24-3.25-7.76-5.27-12.71-5.27
		c-4.95,0-9.47,2.02-12.71,5.27c-3.25,3.24-5.27,7.76-5.27,12.71c0,4.95,2.02,9.47,5.27,12.71c3.24,3.25,7.76,5.27,12.71,5.27
		c4.95,0,9.47-2.02,12.71-5.27c3.25-3.24,5.27-7.76,5.27-12.71H1327.72z"/>
	<polygon class="st0" points="690.9,822.13 701,832.24 701,863.9 734.18,897.08 734.18,1013.51 744.18,1013.51 744.18,892.94 
		711,859.76 711,828.1 697.97,815.07 690.9,822.13 	"/>
	<path class="st0" d="M672.28,809.42h-5c0,4.95,2.02,9.47,5.27,12.71c3.24,3.25,7.76,5.27,12.71,5.27c4.95,0,9.47-2.02,12.71-5.27
		c3.25-3.24,5.27-7.76,5.27-12.71c0-4.95-2.02-9.47-5.27-12.71c-3.24-3.25-7.76-5.27-12.71-5.27c-4.95,0-9.47,2.02-12.71,5.27
		c-3.25,3.24-5.27,7.76-5.27,12.71H672.28h5c0-2.22,0.89-4.18,2.34-5.64c1.46-1.45,3.42-2.33,5.64-2.34c2.22,0,4.18,0.89,5.64,2.34
		c1.45,1.46,2.33,3.42,2.34,5.64c0,2.22-0.89,4.18-2.34,5.64c-1.46,1.45-3.42,2.33-5.64,2.34c-2.22,0-4.18-0.89-5.64-2.34
		c-1.45-1.46-2.33-3.42-2.34-5.64H672.28z"/>
	<path class="st0" d="M757.76,875.69h-5c0,4.95,2.02,9.47,5.27,12.71c3.24,3.25,7.76,5.27,12.71,5.27c4.95,0,9.47-2.02,12.71-5.27
		c3.25-3.24,5.27-7.76,5.27-12.71c0-4.95-2.02-9.47-5.27-12.71c-3.24-3.25-7.76-5.27-12.71-5.27c-4.95,0-9.47,2.02-12.71,5.27
		c-3.25,3.24-5.27,7.76-5.27,12.71H757.76h5c0-2.22,0.89-4.18,2.34-5.64c1.46-1.45,3.42-2.33,5.64-2.34c2.22,0,4.18,0.89,5.64,2.34
		c1.45,1.46,2.33,3.42,2.34,5.64c0,2.22-0.89,4.18-2.34,5.64c-1.46,1.45-3.42,2.33-5.64,2.34c-2.22,0-4.18-0.89-5.64-2.34
		c-1.45-1.46-2.33-3.42-2.34-5.64H757.76z"/>
	<polygon class="st0" points="776.66,888.27 822.73,932.33 822.73,987 832.73,987 832.73,928.06 783.57,881.04 776.66,888.27 	"/>
	<path class="st0" d="M1242.24,875.69h-5c0,2.22-0.89,4.18-2.34,5.64c-1.46,1.45-3.42,2.33-5.64,2.34c-2.22,0-4.18-0.89-5.64-2.34
		c-1.45-1.46-2.33-3.42-2.34-5.64c0-2.22,0.89-4.18,2.34-5.64c1.46-1.45,3.42-2.33,5.64-2.34c2.22,0,4.18,0.89,5.64,2.34
		c1.45,1.46,2.33,3.42,2.34,5.64H1242.24h5c0-4.95-2.02-9.47-5.27-12.71c-3.24-3.25-7.76-5.27-12.71-5.27
		c-4.95,0-9.47,2.02-12.71,5.27c-3.25,3.24-5.27,7.76-5.27,12.71c0,4.95,2.02,9.47,5.27,12.71c3.24,3.25,7.76,5.27,12.71,5.27
		c4.95,0,9.47-2.02,12.71-5.27c3.25-3.24,5.27-7.76,5.27-12.71H1242.24z"/>
	<polygon class="st0" points="1177.26,987 1177.26,932.33 1223.34,888.27 1216.43,881.04 1167.26,928.06 1167.26,987 1177.26,987 	
		"/>
	<path class="st0" d="M732.18,748.11h-4.47c0,2.32-0.93,4.37-2.44,5.9c-1.52,1.52-3.58,2.44-5.9,2.44c-2.32,0-4.37-0.93-5.9-2.44
		c-1.52-1.52-2.44-3.58-2.44-5.9c0-2.32,0.93-4.38,2.44-5.9c1.52-1.52,3.58-2.44,5.9-2.44c2.32,0,4.38,0.93,5.9,2.44
		c1.52,1.52,2.44,3.58,2.44,5.9H732.18h4.47c0-4.76-1.94-9.1-5.06-12.22c-3.11-3.12-7.46-5.06-12.22-5.06
		c-4.76,0-9.1,1.94-12.22,5.06c-3.12,3.11-5.06,7.46-5.06,12.22c0,4.76,1.94,9.1,5.06,12.22c3.11,3.12,7.46,5.06,12.22,5.06
		c4.76,0,9.1-1.94,12.22-5.06c3.12-3.11,5.06-7.46,5.06-12.22H732.18z"/>
	<polygon class="st0" points="725.28,760.33 734.73,769.78 734.73,895.01 743.66,895.01 743.66,766.08 731.59,754.01 725.28,760.33 
			"/>
	<path class="st0" d="M1267.81,748.11h-4.47c0,4.76,1.94,9.1,5.06,12.22c3.11,3.12,7.46,5.06,12.22,5.06c4.76,0,9.1-1.94,12.22-5.06
		c3.12-3.11,5.06-7.46,5.06-12.22c0-4.76-1.94-9.1-5.06-12.22c-3.11-3.12-7.46-5.06-12.22-5.06c-4.76,0-9.1,1.94-12.22,5.06
		c-3.12,3.11-5.06,7.46-5.06,12.22H1267.81h4.47c0-2.32,0.93-4.38,2.44-5.9c1.52-1.52,3.58-2.44,5.9-2.44c2.32,0,4.38,0.93,5.9,2.44
		c1.52,1.52,2.44,3.58,2.44,5.9c0,2.32-0.93,4.37-2.44,5.9c-1.52,1.52-3.58,2.44-5.9,2.44c-2.32,0-4.38-0.93-5.9-2.44
		c-1.52-1.52-2.44-3.58-2.44-5.9H1267.81z"/>
	<polygon class="st0" points="1265.27,895.01 1265.27,769.78 1274.72,760.33 1268.41,754.01 1256.34,766.08 1256.34,895.01 
		1265.27,895.01 	"/>
	<path class="st0" d="M723.86,1053.92h-3.38c0,3.88-1.56,7.36-4.1,9.9c-2.54,2.54-6.02,4.1-9.9,4.1c-3.88,0-7.36-1.56-9.9-4.1
		c-2.54-2.54-4.1-6.02-4.1-9.9c0-3.88,1.56-7.36,4.1-9.9c2.54-2.54,6.02-4.1,9.9-4.1c3.88,0,7.36,1.56,9.9,4.1
		c2.54,2.54,4.1,6.02,4.1,9.9H723.86h3.38c0-5.72-2.33-10.93-6.08-14.67c-3.74-3.75-8.95-6.08-14.67-6.08
		c-5.72,0-10.93,2.33-14.67,6.08c-3.75,3.74-6.08,8.95-6.08,14.67c0,5.72,2.33,10.93,6.08,14.67c3.74,3.75,8.95,6.08,14.67,6.08
		c5.72,0,10.93-2.33,14.67-6.08c3.75-3.74,6.08-8.95,6.08-14.67H723.86z"/>
	<polyline class="st0" points="1277.23,1060.87 1229.58,1093.1 1233.37,1098.69 1281.02,1066.46 	"/>
	<path class="st0" d="M1276.14,1053.92h-3.38c0,5.72,2.33,10.93,6.08,14.67c3.74,3.75,8.95,6.08,14.67,6.08
		c5.72,0,10.93-2.33,14.67-6.08c3.75-3.74,6.08-8.95,6.08-14.67c0-5.72-2.33-10.93-6.08-14.67c-3.74-3.75-8.95-6.08-14.67-6.08
		c-5.72,0-10.93,2.33-14.67,6.08c-3.75,3.74-6.08,8.95-6.08,14.67H1276.14h3.38c0-3.88,1.56-7.36,4.1-9.9
		c2.54-2.54,6.02-4.1,9.9-4.1c3.88,0,7.35,1.56,9.9,4.1c2.54,2.54,4.1,6.02,4.1,9.9c0,3.88-1.56,7.36-4.1,9.9
		c-2.54,2.54-6.02,4.1-9.9,4.1c-3.88,0-7.36-1.56-9.9-4.1c-2.54-2.54-4.1-6.02-4.1-9.9H1276.14z"/>
	<polyline class="st0" points="1009.63,746.98 1009.63,406.41 999.63,406.41 999.63,746.98 	"/>
	<path class="st0" d="M1027.72,383.3h-5c0,5.01-2.02,9.51-5.3,12.8c-3.29,3.28-7.79,5.3-12.8,5.3c-5.01,0-9.51-2.02-12.8-5.3
		c-3.28-3.29-5.3-7.79-5.3-12.8c0-5.01,2.02-9.51,5.3-12.8c3.29-3.28,7.79-5.3,12.8-5.3c5.01,0,9.51,2.02,12.8,5.3
		c3.28,3.29,5.3,7.79,5.3,12.8H1027.72h5c0-7.74-3.15-14.8-8.23-19.87c-5.07-5.08-12.13-8.23-19.87-8.23
		c-7.74,0-14.8,3.15-19.87,8.23c-5.08,5.07-8.23,12.13-8.23,19.87c0,7.74,3.15,14.8,8.23,19.87c5.07,5.08,12.13,8.23,19.87,8.23
		c7.74,0,14.8-3.15,19.87-8.23c5.08-5.07,8.23-12.13,8.23-19.87H1027.72z"/>
	<path class="st0" d="M808.47,613.41h-5c0,2.88-1.15,5.44-3.04,7.33c-1.89,1.88-4.45,3.03-7.33,3.04c-2.88,0-5.44-1.15-7.33-3.04
		c-1.88-1.89-3.03-4.45-3.04-7.33c0-2.88,1.15-5.44,3.04-7.33c1.89-1.88,4.45-3.03,7.33-3.04c2.88,0,5.44,1.15,7.33,3.04
		c1.88,1.89,3.03,4.45,3.04,7.33H808.47h5c0-5.61-2.29-10.73-5.96-14.4c-3.67-3.68-8.79-5.97-14.4-5.96
		c-5.61,0-10.73,2.29-14.4,5.96c-3.68,3.67-5.97,8.79-5.96,14.4c0,5.61,2.29,10.73,5.96,14.4c3.67,3.68,8.79,5.97,14.4,5.96
		c5.61,0,10.73-2.29,14.4-5.96c3.68-3.67,5.97-8.79,5.96-14.4H808.47z"/>
	<polyline class="st0" points="861.88,680.47 807.21,621.3 799.86,628.09 854.53,687.26 	"/>
	<polyline class="st0" points="1194.72,643.99 1138.45,702.29 1145.64,709.23 1201.91,650.93 	"/>
	<path class="st0" d="M1223.38,636.82h-5c0,2.72-1.09,5.13-2.87,6.92c-1.79,1.78-4.2,2.86-6.92,2.87c-2.72,0-5.13-1.09-6.92-2.87
		c-1.78-1.79-2.86-4.2-2.87-6.92c0-2.72,1.09-5.13,2.87-6.92c1.79-1.78,4.2-2.86,6.92-2.87c2.72,0,5.13,1.09,6.92,2.87
		c1.78,1.79,2.86,4.2,2.87,6.92H1223.38h5c0-5.45-2.22-10.43-5.8-13.99c-3.56-3.57-8.54-5.8-13.99-5.8c-5.45,0-10.43,2.22-13.99,5.8
		c-3.57,3.57-5.8,8.54-5.8,13.99c0,5.45,2.22,10.43,5.8,13.99c3.56,3.57,8.54,5.8,13.99,5.8c5.45,0,10.43-2.22,13.99-5.8
		c3.57-3.57,5.8-8.54,5.8-13.99H1223.38z"/>
	<polygon class="st0" points="1217.64,776.66 1217.64,759.24 1307.1,669.77 1300.03,662.7 1207.64,755.1 1207.64,776.66 
		1217.64,776.66 	"/>
	<path class="st0" d="M701.94,653.88h-5c0,3.24-1.3,6.13-3.42,8.26c-2.13,2.12-5.02,3.42-8.26,3.42c-3.24,0-6.13-1.3-8.26-3.42
		c-2.12-2.13-3.42-5.02-3.42-8.26c0-3.24,1.3-6.13,3.42-8.26c2.13-2.12,5.02-3.42,8.26-3.42c3.24,0,6.13,1.3,8.26,3.42
		c2.12,2.13,3.42,5.02,3.42,8.26H701.94h5c0-5.97-2.43-11.42-6.35-15.33c-3.91-3.92-9.36-6.35-15.33-6.35
		c-5.97,0-11.42,2.43-15.33,6.35c-3.92,3.91-6.35,9.36-6.35,15.33c0,5.97,2.43,11.42,6.35,15.33c3.91,3.92,9.36,6.35,15.33,6.35
		c5.97,0,11.42-2.43,15.33-6.35c3.92-3.91,6.35-9.36,6.35-15.33H701.94z"/>
	<polygon class="st0" points="692.9,669.77 782.36,759.24 782.36,776.66 792.36,776.66 792.36,755.1 699.97,662.7 692.9,669.77 	"/>
	<path class="st0" d="M851.1,524.68h-5c0,3.24-1.3,6.13-3.42,8.26c-2.13,2.12-5.02,3.42-8.26,3.42c-3.24,0-6.13-1.3-8.26-3.42
		c-2.12-2.13-3.42-5.02-3.42-8.26c0-3.24,1.3-6.13,3.42-8.26c2.13-2.12,5.02-3.42,8.26-3.42c3.24,0,6.13,1.3,8.26,3.42
		c2.12,2.13,3.42,5.02,3.42,8.26H851.1h5c0-5.97-2.43-11.42-6.35-15.33c-3.91-3.92-9.36-6.35-15.33-6.35
		c-5.97,0-11.42,2.43-15.33,6.35c-3.92,3.91-6.35,9.36-6.35,15.33c0,5.97,2.43,11.42,6.35,15.33c3.91,3.92,9.36,6.35,15.33,6.35
		c5.97,0,11.42-2.43,15.33-6.35c3.92-3.91,6.35-9.36,6.35-15.33H851.1z"/>
	<polygon class="st0" points="941.52,625.9 941.52,679.83 931.52,679.83 931.52,630.04 926.61,625.13 917.67,616.19 842.06,540.57 
		849.13,533.5 917.67,602.05 926.61,610.99 	"/>
	<path class="st0" d="M1148.9,524.68h-5c0,5.97,2.43,11.42,6.35,15.33c3.91,3.92,9.36,6.35,15.33,6.35c5.97,0,11.42-2.43,15.33-6.35
		c3.92-3.91,6.35-9.36,6.35-15.33c0-5.97-2.43-11.42-6.35-15.33c-3.91-3.92-9.36-6.35-15.33-6.35c-5.97,0-11.42,2.43-15.33,6.35
		c-3.92,3.91-6.35,9.36-6.35,15.33H1148.9h5c0-3.24,1.3-6.13,3.42-8.26c2.13-2.12,5.02-3.42,8.26-3.42c3.24,0,6.13,1.3,8.26,3.42
		c2.12,2.13,3.42,5.02,3.42,8.26c0,3.24-1.3,6.13-3.42,8.26c-2.13,2.12-5.02,3.42-8.26,3.42c-3.24,0-6.13-1.3-8.26-3.42
		c-2.12-2.13-3.42-5.02-3.42-8.26H1148.9z"/>
	<polygon class="st0" points="1157.53,540.94 1089.48,595.44 1080.54,602.6 1078.63,604.13 1072.38,596.33 1080.54,589.79 
		1089.48,582.63 1151.28,533.13 	"/>
</g>
</svg>
