<svg width="100%" height="100%" id="Layer_1" data-name=" Layer 1" xmlns="http://www.w3.org/2000/svg" viewBox="600 500 800 1000">
    <title>logo</title>
    <path class="cls-1" d="M1080.14,731.28h-5a16.1,16.1,0,1,1-4.72-11.39,16,16,0,0,1,4.72,11.39h10a26.1,26.1,0,1,0-7.65,18.46,26.05,26.05,0,0,0,7.65-18.46Z" />
    <path class="cls-1" d="M808.47,797.76h-5a16.12,16.12,0,1,1-4.72-11.38,16,16,0,0,1,4.72,11.38h10a26.1,26.1,0,1,0-7.64,18.46,26,26,0,0,0,7.64-18.46Z" />
    <path class="cls-1" d="M808.47,953.62h-5a16.12,16.12,0,1,1-4.72-11.38,16,16,0,0,1,4.72,11.38h10a26.1,26.1,0,1,0-7.64,18.46,26,26,0,0,0,7.64-18.46Z" />
    <path class="cls-1" d="M794.76,1103.6h-3.38a10.87,10.87,0,1,1-3.18-7.69,10.8,10.8,0,0,1,3.18,7.69h6.75a17.62,17.62,0,1,0-5.16,12.46,17.54,17.54,0,0,0,5.16-12.46Z" />
    <polygon class="cls-1" points="1054.03 748.11 1054.03 787.16 1021.76 819.99 1021.76 917.17 995 945.86 995 1430.59 1005 1430.59 1005 949.8 1031.76 921.11 1031.76 824.08 1064.03 791.26 1064.03 748.11 1054.03 748.11 1054.03 748.11" />
    <rect class="cls-1" x="992.97" y="1430.59" width="14.07" height="66.41" />
    <rect class="cls-1" x="947.24" y="1430.59" width="14.07" height="66.41" />
    <path class="cls-1" d="M980.72,613.41h-4.47a13.54,13.54,0,1,1-4-9.56,13.46,13.46,0,0,1,4,9.56h8.93a22.45,22.45,0,1,0-6.57,15.88,22.39,22.39,0,0,0,6.57-15.88Z" />
    <path class="cls-1" d="M886.49,613.41H882a13.54,13.54,0,1,1-4-9.56,13.46,13.46,0,0,1,4,9.56H891a22.47,22.47,0,1,0-6.58,15.88A22.4,22.4,0,0,0,891,613.41Z" />
    <path class="cls-1" d="M941.19,807.83h-2.5a7.57,7.57,0,1,1-12.92-5.35,7.56,7.56,0,0,1,10.7,0,7.5,7.5,0,0,1,2.22,5.35h5a12.56,12.56,0,1,0-3.68,8.89,12.52,12.52,0,0,0,3.68-8.89Z" />
    <path class="cls-1" d="M887.2,807.83h-5a5.09,5.09,0,1,1-1.49-3.58,5,5,0,0,1,1.49,3.58h10a15.06,15.06,0,1,0-4.41,10.66,15.08,15.08,0,0,0,4.41-10.66Z" />
    <polygon class="cls-1" points="958.26 632.88 958.26 705.67 1000.16 748.79 1000.16 939.99 1009.09 939.99 1009.09 745.17 967.19 702.04 967.19 632.88 958.26 632.88 958.26 632.88" />
    <polyline class="cls-1" points="965.82 700.63 884.55 622.64 878.37 629.09 959.63 707.08" />
    <path class="cls-1" d="M1113.51,613.41h-4.46a22.45,22.45,0,1,0,6.57-15.88,22.43,22.43,0,0,0-6.57,15.88H1118a13.52,13.52,0,1,1,4,9.56,13.46,13.46,0,0,1-4-9.56Z" />
    <polyline class="cls-1" points="1115.44 622.65 1055.94 679.76 1062.13 686.2 1121.63 629.09" />
    <polygon class="cls-1" points="936.47 816.72 969.3 849.55 969.3 989.08 998.41 1018.18 1001.95 1014.64 974.3 987.01 974.3 847.48 940.01 813.18 936.47 816.72 936.47 816.72" />
    <path class="cls-1" d="M837.81,895h-2.5a7.58,7.58,0,1,1-2.22-5.35,7.58,7.58,0,0,1,2.22,5.35h5a12.57,12.57,0,1,0-12.57,12.57A12.58,12.58,0,0,0,840.31,895Z" />
    <polygon class="cls-1" points="833.09 903.9 865.91 936.73 865.91 1076.37 895.36 1101.72 898.63 1097.94 870.91 1074.07 870.91 934.65 836.62 900.36 833.09 903.9 833.09 903.9" />
    <polygon class="cls-1" points="880.71 818.49 934.6 872.37 934.6 1016.11 952.11 1033.62 952.11 1154.05 964.04 1165.96 964.04 1404.79 949.59 1419.24 949.59 1431.83 949.59 1463.79 959.59 1463.79 959.59 1431.83 959.59 1423.38 974.04 1408.93 974.04 1161.82 962.11 1149.9 962.11 1029.48 944.6 1011.97 944.6 868.23 887.79 811.42 880.72 818.49 880.71 818.49" />
    <polygon class="cls-1" points="798.76 816.23 891.99 909.46 891.99 1102.11 953.84 1155.75 960.39 1148.19 901.99 1097.55 901.99 905.32 805.83 809.15 798.76 816.23 798.76 816.23" />
    <rect class="cls-1" x="906.41" y="1430.59" width="14.07" height="66.41" />
    <polygon class="cls-1" points="800.06 971.2 822.73 990.81 822.73 1052.32 894.07 1103.88 899.92 1095.78 832.73 1047.2 832.73 986.23 806.61 963.64 800.06 971.2 800.06 971.2" />
    <polygon class="cls-1" points="790.16 1114.61 820.07 1135.92 820.07 1174.2 910.32 1264.44 910.32 1435.42 917.07 1435.42 917.07 1261.64 826.82 1171.4 826.82 1132.44 794.07 1109.11 790.16 1114.61 790.16 1114.61" />
    <polyline class="cls-1" points="770.42 1093.1 722.77 1060.87 718.98 1066.46 766.63 1098.69" />
    <path class="cls-1" d="M879.17,1122.59h-3.38a9.87,9.87,0,1,1-2.89-7,9.84,9.84,0,0,1,2.89,7h6.75a16.63,16.63,0,1,0-4.87,11.75,16.56,16.56,0,0,0,4.87-11.75Z" />
    <polygon class="cls-1" points="862.55 1135.83 862.55 1164.54 910.64 1212.63 910.64 1267.42 917.39 1267.42 917.39 1209.83 869.3 1161.74 869.3 1135.83 862.55 1135.83 862.55 1135.83" />
    <path class="cls-1" d="M1191.53,797.76h-5a26.1,26.1,0,1,0,7.64-18.45,26.07,26.07,0,0,0-7.64,18.45h10a16.12,16.12,0,1,1,4.72,11.39,16,16,0,0,1-4.72-11.39Z" />
    <path class="cls-1" d="M1191.53,953.62h-5a26.1,26.1,0,1,0,7.64-18.45,26.07,26.07,0,0,0-7.64,18.45h10a16.12,16.12,0,1,1,4.72,11.39,16,16,0,0,1-4.72-11.39Z" />
    <path class="cls-1" d="M1205.24,1103.6h-3.37a17.62,17.62,0,1,0,5.16-12.47,17.53,17.53,0,0,0-5.16,12.47h6.75a10.87,10.87,0,1,1,3.18,7.68,10.82,10.82,0,0,1-3.18-7.68Z" />
    <rect class="cls-1" x="1038.69" y="1430.59" width="14.07" height="66.41" />
    <path class="cls-1" d="M1112.8,807.83h-5a15.07,15.07,0,1,0,4.41-10.65,15.09,15.09,0,0,0-4.41,10.65h10a5.07,5.07,0,1,1,1.49,3.59,5,5,0,0,1-1.49-3.59Z" />
    <path class="cls-1" d="M1162.19,895h-2.5a12.57,12.57,0,1,0,12.57-12.57A12.57,12.57,0,0,0,1159.69,895h5a7.58,7.58,0,1,1,2.22,5.35,7.58,7.58,0,0,1-2.22-5.35Z" />
    <polygon class="cls-1" points="1163.38 900.36 1129.09 934.65 1129.09 1074.07 1101.38 1097.94 1104.64 1101.72 1134.09 1076.37 1134.09 936.73 1166.91 903.9 1163.38 900.36 1163.38 900.36" />
    <polygon class="cls-1" points="1112.21 811.42 1055.4 868.23 1055.4 1011.97 1037.89 1029.48 1037.89 1149.9 1025.96 1161.82 1025.96 1408.93 1040.41 1423.38 1040.41 1431.83 1040.41 1463.79 1050.41 1463.79 1050.41 1431.83 1050.41 1419.24 1035.96 1404.79 1035.96 1165.96 1047.89 1154.05 1047.89 1033.62 1065.4 1016.11 1065.4 872.37 1119.29 818.49 1112.21 811.42 1112.21 811.42" />
    <polygon class="cls-1" points="1046.16 1155.75 1108.01 1102.11 1108.01 909.46 1201.24 816.23 1194.17 809.15 1098.01 905.32 1098.01 1097.55 1039.61 1148.19 1046.16 1155.75 1046.16 1155.75" />
    <rect class="cls-1" x="1079.52" y="1430.59" width="14.07" height="66.41" />
    <polygon class="cls-1" points="1105.93 1103.88 1177.27 1052.32 1177.27 990.81 1199.94 971.2 1193.39 963.64 1167.27 986.23 1167.27 1047.2 1100.08 1095.78 1105.93 1103.88 1105.93 1103.88" />
    <polygon class="cls-1" points="1089.68 1435.42 1089.68 1264.44 1179.93 1174.2 1179.93 1135.92 1209.84 1114.61 1205.93 1109.11 1173.18 1132.44 1173.18 1171.4 1082.93 1261.64 1082.93 1435.42 1089.68 1435.42 1089.68 1435.42" />
    <path class="cls-1" d="M1120.83,1122.59h-3.37a16.63,16.63,0,1,0,4.87-11.75,16.56,16.56,0,0,0-4.87,11.75h6.75a9.87,9.87,0,1,1,2.89,7,9.82,9.82,0,0,1-2.89-7Z" />
    <polygon class="cls-1" points="1089.36 1267.42 1089.36 1212.63 1137.45 1164.54 1137.45 1135.83 1130.7 1135.83 1130.7 1161.74 1082.61 1209.83 1082.61 1267.42 1089.36 1267.42 1089.36 1267.42" />
    <polygon class="cls-1" points="771.62 688.08 771.62 688.09 771.62 690.16 835.92 754.45 835.92 851.32 845.92 851.32 845.92 750.31 780.16 684.55 776.62 688.09 781.62 688.09 781.62 688.08 771.62 688.08" />
    <path class="cls-1" d="M781.52,676.29h-5A11.68,11.68,0,1,1,773.1,668a11.65,11.65,0,0,1,3.42,8.26h10a21.68,21.68,0,1,0-6.35,15.34,21.67,21.67,0,0,0,6.35-15.34Z" />
    <polygon class="cls-1" points="1164.08 851.32 1164.08 754.45 1228.38 690.16 1228.38 688.08 1218.38 688.08 1218.38 688.09 1223.38 688.09 1219.84 684.55 1154.08 750.31 1154.08 851.32 1164.08 851.32 1164.08 851.32" />
    <path class="cls-1" d="M1218.48,676.29h-5a21.68,21.68,0,1,0,6.35-15.33,21.68,21.68,0,0,0-6.35,15.33h10a11.69,11.69,0,1,1,3.42,8.26,11.62,11.62,0,0,1-3.42-8.26Z" />
    <path class="cls-1" d="M1298.06,653.88h-5a21.68,21.68,0,1,0,6.35-15.33,21.67,21.67,0,0,0-6.35,15.33h10a11.69,11.69,0,1,1,3.43,8.26,11.63,11.63,0,0,1-3.43-8.26Z" />
    <polyline class="cls-1" points="1064.03 710.18 1064.03 634.51 1054.03 634.51 1054.03 710.18" />
    <path class="cls-1" d="M1080.14,613.41h-5a16.12,16.12,0,1,1-4.72-11.39,16,16,0,0,1,4.72,11.39h10a26.1,26.1,0,1,0-7.65,18.46,26.05,26.05,0,0,0,7.65-18.46Z" />
    <path class="cls-1" d="M883.67,695h-5a10.17,10.17,0,1,1-3-7.19,10.16,10.16,0,0,1,3,7.19h10a20.18,20.18,0,1,0-5.91,14.27A20.14,20.14,0,0,0,888.67,695Z" />
    <polyline class="cls-1" points="1007.2 826.63 882.76 702.19 875.69 709.27 1000.13 833.71" />
    <path class="cls-1" d="M1116.33,716.66h-5a20.18,20.18,0,1,0,5.91-14.26,20.17,20.17,0,0,0-5.91,14.26h10a10.17,10.17,0,1,1,3,7.2,10.11,10.11,0,0,1-3-7.2Z" />
    <polyline class="cls-1" points="1117.22 723.88 1024.16 818.21 1031.28 825.23 1124.34 730.9" />
    <polygon class="cls-1" points="1193.25 1125.84 1193.25 1075.84 1283.81 1000.99 1277.44 993.29 1183.25 1071.13 1183.25 1125.84 1193.25 1125.84 1193.25 1125.84" />
    <path class="cls-1" d="M1315.31,984.66h-5a14.58,14.58,0,1,1-4.27-10.32,14.48,14.48,0,0,1,4.27,10.32h10a24.6,24.6,0,1,0-7.2,17.38,24.58,24.58,0,0,0,7.2-17.38Z" />
    <polygon class="cls-1" points="716.19 1000.99 806.75 1075.84 806.75 1125.84 816.75 1125.84 816.75 1071.13 722.56 993.29 716.19 1000.99 716.19 1000.99" />
    <path class="cls-1" d="M684.69,984.66h-5a24.58,24.58,0,1,0,7.2-17.39,24.53,24.53,0,0,0-7.2,17.39h10A14.6,14.6,0,1,1,694,995a14.52,14.52,0,0,1-4.27-10.31Z" />
    <polygon class="cls-1" points="644.33 880.54 734.88 955.4 734.88 1005.39 744.88 1005.39 744.88 950.69 650.7 872.84 644.33 880.54 644.33 880.54" />
    <path class="cls-1" d="M612.82,864.21h-5A24.62,24.62,0,1,0,615,846.83a24.54,24.54,0,0,0-7.21,17.38h10a14.61,14.61,0,1,1,4.28,10.31,14.53,14.53,0,0,1-4.28-10.31Z" />
    <polygon class="cls-1" points="1349.3 872.84 1255.12 950.69 1255.12 1005.39 1265.12 1005.39 1265.12 955.4 1355.67 880.54 1349.3 872.84 1349.3 872.84" />
    <path class="cls-1" d="M1387.18,864.21h-5a14.61,14.61,0,1,1-4.28-10.31,14.53,14.53,0,0,1,4.28,10.31h10A24.6,24.6,0,1,0,1385,881.6a24.5,24.5,0,0,0,7.21-17.39Z" />
    <polygon class="cls-1" points="1265.82 1013.51 1265.82 897.08 1299 863.9 1299 832.24 1309.1 822.13 1302.03 815.07 1289 828.1 1289 859.76 1255.82 892.94 1255.82 1013.51 1265.82 1013.51 1265.82 1013.51" />
    <path class="cls-1" d="M1327.72,809.42h-5a8,8,0,1,1-2.33-5.64,7.9,7.9,0,0,1,2.33,5.64h10a18,18,0,1,0-5.26,12.72,17.94,17.94,0,0,0,5.26-12.72Z" />
    <polygon class="cls-1" points="690.9 822.13 701 832.24 701 863.9 734.18 897.08 734.18 1013.51 744.18 1013.51 744.18 892.94 711 859.76 711 828.1 697.97 815.07 690.9 822.13 690.9 822.13" />
    <path class="cls-1" d="M672.28,809.42h-5a18,18,0,1,0,5.26-12.71,18,18,0,0,0-5.26,12.71h10a8,8,0,1,1,2.33,5.64,7.92,7.92,0,0,1-2.33-5.64Z" />
    <path class="cls-1" d="M757.76,875.69h-5A18,18,0,1,0,758,863a18,18,0,0,0-5.26,12.71h10a8,8,0,1,1,2.33,5.65,7.93,7.93,0,0,1-2.33-5.65Z" />
    <polygon class="cls-1" points="776.66 888.27 822.74 932.33 822.74 987 832.74 987 832.74 928.06 783.57 881.04 776.66 888.27 776.66 888.27" />
    <path class="cls-1" d="M1242.24,875.69h-5a8,8,0,1,1-2.33-5.64,7.94,7.94,0,0,1,2.33,5.64h10a18,18,0,1,0-5.26,12.72,17.94,17.94,0,0,0,5.26-12.72Z" />
    <polygon class="cls-1" points="1177.27 987 1177.27 932.33 1223.34 888.27 1216.43 881.04 1167.27 928.06 1167.27 987 1177.27 987 1177.27 987" />
    <path class="cls-1" d="M732.18,748.11h-4.46a8.35,8.35,0,1,1-2.45-5.9,8.31,8.31,0,0,1,2.45,5.9h8.93a17.28,17.28,0,1,0-5.06,12.21,17.25,17.25,0,0,0,5.06-12.21Z" />
    <polygon class="cls-1" points="725.28 760.33 734.73 769.78 734.73 895.01 743.66 895.01 743.66 766.08 731.59 754.01 725.28 760.33 725.28 760.33" />
    <path class="cls-1" d="M1267.81,748.11h-4.46a17.28,17.28,0,1,0,5.06-12.22,17.24,17.24,0,0,0-5.06,12.22h8.93a8.35,8.35,0,1,1,2.45,5.9,8.27,8.27,0,0,1-2.45-5.9Z" />
    <polygon class="cls-1" points="1265.27 895.01 1265.27 769.78 1274.72 760.33 1268.41 754.01 1256.34 766.08 1256.34 895.01 1265.27 895.01 1265.27 895.01" />
    <path class="cls-1" d="M723.86,1053.92h-3.37a14,14,0,1,1-4.1-9.89,14,14,0,0,1,4.1,9.89h6.75a20.76,20.76,0,1,0-6.08,14.68,20.71,20.71,0,0,0,6.08-14.68Z" />
    <polyline class="cls-1" points="1277.23 1060.87 1229.58 1093.1 1233.37 1098.69 1281.02 1066.46" />
    <path class="cls-1" d="M1276.14,1053.92h-3.38a20.76,20.76,0,1,0,6.08-14.67,20.73,20.73,0,0,0-6.08,14.67h6.75a14,14,0,1,1,4.1,9.9,13.91,13.91,0,0,1-4.1-9.9Z" />
    <polyline class="cls-1" points="1009.63 746.98 1009.63 566.41 999.63 566.41 999.63 746.98" />
    <path class="cls-1" d="M1027.72,543.3h-5a18.1,18.1,0,1,1-5.3-12.8,18,18,0,0,1,5.3,12.8h10a28.1,28.1,0,1,0-8.23,19.87,28,28,0,0,0,8.23-19.87Z" />
    <path class="cls-1" d="M808.47,613.41h-5a10.36,10.36,0,1,1-3-7.33,10.32,10.32,0,0,1,3,7.33h10a20.35,20.35,0,1,0-6,14.4,20.36,20.36,0,0,0,6-14.4Z" />
    <polyline class="cls-1" points="861.88 680.48 807.21 621.3 799.86 628.09 854.53 687.26" />
    <polyline class="cls-1" points="1194.72 643.99 1138.45 702.28 1145.64 709.23 1201.91 650.93" />
    <path class="cls-1" d="M1223.38,636.82h-5a9.8,9.8,0,1,1-2.87-6.92,9.75,9.75,0,0,1,2.87,6.92h10a19.8,19.8,0,1,0-5.8,14,19.78,19.78,0,0,0,5.8-14Z" />
    <polygon class="cls-1" points="1217.63 776.66 1217.63 759.24 1307.1 669.77 1300.03 662.7 1207.63 755.1 1207.63 776.66 1217.63 776.66 1217.63 776.66" />
    <path class="cls-1" d="M701.94,653.88h-5a11.69,11.69,0,1,1-3.43-8.26,11.63,11.63,0,0,1,3.43,8.26h10a21.68,21.68,0,1,0-6.35,15.33,21.57,21.57,0,0,0,6.35-15.33Z" />
    <polygon class="cls-1" points="692.9 669.77 782.37 759.24 782.37 776.66 792.37 776.66 792.37 755.1 699.97 662.7 692.9 669.77 692.9 669.77" />
    <path class="cls-1" d="M851.1,524.68h-5a11.68,11.68,0,1,1-3.42-8.26,11.66,11.66,0,0,1,3.42,8.26h10A21.68,21.68,0,1,0,849.75,540a21.66,21.66,0,0,0,6.35-15.33Z" />
    <polygon class="cls-1" points="842.06 540.57 931.53 630.04 931.53 679.83 941.53 679.83 941.53 625.9 849.13 533.5 842.06 540.57 842.06 540.57" />
    <path class="cls-1" d="M1148.9,524.68h-5a21.68,21.68,0,1,0,6.35-15.33,21.67,21.67,0,0,0-6.35,15.33h10a11.68,11.68,0,1,1,3.42,8.26,11.66,11.66,0,0,1-3.42-8.26Z" />
    <polyline class="cls-1" points="1151.28 533.13 1072.38 596.33 1078.63 604.13 1157.53 540.94" />
</svg>